<?xml version="1.0" encoding="utf-8"?>
<!-- Generator: Adobe Illustrator 24.3.0, SVG Export Plug-In . SVG Version: 6.00 Build 0)  -->
<svg version="1.1" baseProfile="tiny" id="圖層_1"
	 xmlns="http://www.w3.org/2000/svg" xmlns:xlink="http://www.w3.org/1999/xlink" x="0px" y="0px" viewBox="0 0 195 68.69"
	 overflow="visible" xml:space="preserve">
<g display="none">
	<path display="inline" fill="#FFFFFF" d="M11.57,28.44l1.13,0.84c0.11,0.11,0.16,0.2,0.16,0.27c0,0.05-0.05,0.09-0.13,0.11
		c-0.12,0.02-0.22,0.06-0.29,0.13c-0.33,0.48-0.68,0.92-1.06,1.32c-0.44,0.44-1,0.89-1.69,1.35c-0.16,0-0.27-0.05-0.32-0.16
		c-0.28-0.22-0.52-0.42-0.71-0.59C8.56,31.65,8.5,31.6,8.5,31.55c0-0.03,0.02-0.07,0.07-0.1c0.33-0.14,0.6-0.29,0.81-0.47
		c0.45-0.34,0.84-0.72,1.16-1.11c0.28-0.35,0.6-0.78,0.94-1.3C11.51,28.48,11.54,28.44,11.57,28.44z M25.94,21.49
		c0.15,0,0.23,0.09,0.23,0.26v0.72c0,0.17-0.08,0.26-0.23,0.26H8.81c-0.15,0-0.23-0.09-0.23-0.26v-0.72c0-0.17,0.08-0.26,0.23-0.26
		H25.94z M12.66,14.4c1.07,0.53,1.61,0.85,1.61,0.94c0,0.12-0.05,0.18-0.14,0.18c-0.22,0.01-0.37,0.08-0.43,0.2
		c-0.66,1.26-1.32,2.21-1.97,2.86c-0.37,0.39-0.99,0.95-1.87,1.67c-0.14,0-0.26-0.06-0.39-0.19c-0.19-0.15-0.39-0.32-0.59-0.49
		c-0.1-0.07-0.14-0.15-0.14-0.23c0.46-0.38,0.92-0.78,1.37-1.2c0.59-0.54,1.11-1.15,1.56-1.82c0.38-0.6,0.67-1.19,0.89-1.77
		C12.58,14.45,12.62,14.4,12.66,14.4z M25.4,26.51c0.15,0,0.23,0.09,0.23,0.26v0.72c0,0.17-0.08,0.26-0.23,0.26H9.51
		c-0.15,0-0.23-0.09-0.23-0.26v-0.72c0-0.17,0.08-0.26,0.23-0.26H25.4z M11.51,17.25h1.39v9.62c0,0.17-0.1,0.26-0.3,0.26h-0.8
		c-0.19,0-0.28-0.09-0.28-0.26V17.25z M25.09,16.63c0.15,0,0.23,0.09,0.23,0.26v0.72c0,0.17-0.08,0.26-0.23,0.26H12.36
		c-0.15,0-0.23-0.09-0.23-0.26v-0.72c0-0.17,0.08-0.26,0.23-0.26H25.09z M15.85,28.64c0.56,0.91,1.07,1.88,1.53,2.92
		c0,0.2-0.04,0.31-0.13,0.32c-0.48,0.33-0.87,0.5-1.16,0.5c-0.49-1.29-0.95-2.35-1.39-3.2c0-0.15,0.31-0.36,0.93-0.66
		C15.74,28.51,15.82,28.55,15.85,28.64z M14.98,17.25h1.39v9.62c0,0.17-0.1,0.26-0.3,0.26h-0.8c-0.19,0-0.28-0.09-0.28-0.26V17.25z
		 M18.53,17.25h1.39v9.62c0,0.17-0.1,0.26-0.3,0.26h-0.8c-0.19,0-0.28-0.09-0.28-0.26V17.25z M19.7,28.64
		c0.7,0.94,1.33,1.93,1.92,2.99c0,0.2-0.04,0.31-0.13,0.32c-0.48,0.33-0.87,0.5-1.16,0.5c-0.62-1.32-1.21-2.41-1.77-3.28
		c0-0.15,0.31-0.36,0.93-0.66C19.6,28.51,19.67,28.55,19.7,28.64z M22.08,17.25h1.39v9.62c0,0.17-0.1,0.26-0.3,0.26h-0.8
		c-0.19,0-0.28-0.09-0.28-0.26V17.25z M25.03,29.91c0.54,0.56,0.99,1.07,1.38,1.52c0,0.03-0.04,0.09-0.11,0.18
		c-0.41,0.56-0.63,0.84-0.65,0.84c-0.58-0.72-1.2-1.38-1.87-1.99c-0.55-0.48-1-0.82-1.36-1.02c0-0.07,0.22-0.35,0.66-0.86
		c0.07-0.09,0.12-0.14,0.17-0.14C23.97,28.96,24.56,29.45,25.03,29.91z"/>
	<path display="inline" fill="#FFFFFF" d="M29.74,15.2h0.8c0.2,0,0.31,0.08,0.31,0.24v16.83c0,0.17-0.1,0.26-0.31,0.26h-0.8
		c-0.19,0-0.29-0.09-0.29-0.26V15.44C29.45,15.28,29.55,15.2,29.74,15.2z M34.08,15.2v1.16h-3.66c-0.18,0-0.27-0.08-0.27-0.23v-0.7
		c0-0.15,0.09-0.23,0.27-0.23H34.08z M34.08,15.2c0.35,0,0.58,0.05,0.68,0.14c0.31,0.3,0.47,0.56,0.47,0.76l-2.02,5.01
		c-0.02,0.08-0.02,0.15-0.02,0.22c0,0.05,0.03,0.1,0.08,0.16c0.71,0.75,1.24,1.49,1.61,2.23c0.29,0.71,0.44,1.39,0.44,2.04
		c0,1.16-0.18,2.02-0.55,2.56c-0.43,0.69-1.13,1.03-2.09,1.03c-0.61,0-0.93-0.13-0.96-0.39c-0.04-0.3-0.13-0.64-0.26-1.03
		c0-0.2,0.05-0.3,0.15-0.3l1.07,0.14c0.47,0,0.76-0.19,0.88-0.58c0.11-0.37,0.16-0.91,0.16-1.62c0-0.55-0.17-1.14-0.5-1.78
		c-0.35-0.74-0.89-1.43-1.61-2.08c-0.08-0.06-0.13-0.11-0.13-0.15c0-0.05,0.03-0.15,0.09-0.3L34.08,15.2z M46.44,19.6
		c0.14,0,0.22,0.08,0.22,0.24v0.68c0,0.16-0.07,0.24-0.22,0.24h-11.6c-0.15,0-0.22-0.08-0.22-0.24v-0.68c0-0.16,0.07-0.24,0.22-0.24
		H46.44z M46.59,29.25c0.15,0,0.22,0.08,0.22,0.24v0.68c0,0.16-0.07,0.24-0.22,0.24H34.84c-0.15,0-0.22-0.08-0.22-0.24v-0.68
		c0-0.16,0.07-0.24,0.22-0.24H46.59z M45.98,16.21c0.14,0,0.22,0.08,0.22,0.24v0.68c0,0.16-0.07,0.24-0.22,0.24H35.69
		c-0.15,0-0.22-0.08-0.22-0.24v-0.68c0-0.16,0.07-0.24,0.22-0.24H45.98z M36.44,22.11h8.78l-1.11,1.08h-6.48v3.63l-1.11,1.08
		c-0.19,0-0.28-0.09-0.28-0.26v-5.27C36.24,22.2,36.31,22.11,36.44,22.11z M44.11,23.19l1.11-1.08c0.19,0,0.28,0.09,0.28,0.26v5.27
		c0,0.17-0.07,0.26-0.21,0.26h-8.77l1.11-1.08h6.48V23.19z M44.6,24.42c0.14,0,0.2,0.07,0.2,0.23v0.63c0,0.15-0.07,0.23-0.2,0.23
		h-7.46c-0.14,0-0.2-0.08-0.2-0.23v-0.63c0-0.15,0.07-0.23,0.2-0.23H44.6z M38.98,18.85c0.2,0.34,0.36,0.7,0.5,1.08
		c0,0.05-0.41,0.19-1.21,0.4c-0.06-0.24-0.17-0.54-0.35-0.88c-0.2-0.39-0.45-0.79-0.77-1.2c0-0.09,0.34-0.29,1.02-0.62
		C38.5,18.08,38.77,18.48,38.98,18.85z M41.9,14.81c0,0.17-0.07,0.27-0.21,0.28c-0.14,0.01-0.21,0.14-0.21,0.39v1.04
		c0,0.17-0.1,0.26-0.3,0.26h-0.8c-0.19,0-0.28-0.09-0.28-0.26v-1.74c0-0.16,0.1-0.24,0.29-0.24C41.39,14.55,41.9,14.64,41.9,14.81z
		 M40.1,27.36h1.39v4.99c0,0.17-0.1,0.26-0.3,0.26h-0.8c-0.19,0-0.28-0.09-0.28-0.26V27.36z M43.13,17.64l1.12,0.46
		c0.18,0.08,0.27,0.17,0.27,0.27c0,0.07-0.04,0.12-0.13,0.15c-0.12,0-0.2,0.05-0.22,0.15c-0.33,0.73-0.65,1.3-0.97,1.71
		c-0.07,0.08-0.13,0.12-0.16,0.12c-0.08,0-0.18-0.04-0.3-0.11c-0.25-0.12-0.49-0.24-0.7-0.34c-0.1-0.04-0.15-0.07-0.15-0.09
		c0-0.01,0.02-0.04,0.06-0.08c0.28-0.38,0.49-0.7,0.64-0.98c0.21-0.36,0.36-0.72,0.45-1.08C43.05,17.69,43.09,17.64,43.13,17.64z"/>
	<path display="inline" fill="#FFFFFF" d="M52.02,16.55L53.19,17c-0.23,1.27-0.46,2.41-0.7,3.44c-0.28,1.05-0.59,1.99-0.9,2.81
		c-0.31,0.87-0.68,1.67-1.1,2.41c-0.15,0-0.26-0.04-0.33-0.11c-0.28-0.13-0.55-0.26-0.83-0.4c-0.12,0-0.18-0.03-0.18-0.11
		c0.57-0.94,1.02-1.86,1.37-2.78c0.34-0.86,0.61-1.7,0.79-2.53c0.19-0.62,0.4-1.64,0.63-3.06C51.95,16.6,51.97,16.55,52.02,16.55z
		 M55.04,16.05c0.15,0,0.22,0.08,0.22,0.24v0.68c0,0.16-0.07,0.24-0.22,0.24h-4.97c-0.15,0-0.22-0.08-0.22-0.24V16.3
		c0-0.16,0.07-0.24,0.22-0.24H55.04z M51.35,21.99h0.71c0.18,0,0.27,0.08,0.27,0.24v9.99c0,0.15-0.09,0.23-0.27,0.23h-0.71
		c-0.17,0-0.25-0.08-0.25-0.23v-9.99C51.09,22.07,51.18,21.99,51.35,21.99z M54.78,21.99c0.17,0,0.25,0.08,0.25,0.23v8.14
		c0,0.15-0.09,0.23-0.27,0.23h-0.71c-0.17,0-0.25-0.08-0.25-0.23v-7.21h-1.87c-0.15,0-0.22-0.08-0.22-0.23v-0.69
		c0-0.15,0.07-0.23,0.22-0.23H54.78z M54.27,28.55c0.15,0,0.22,0.08,0.22,0.24v0.67c0,0.16-0.07,0.24-0.22,0.24h-2.34
		c-0.15,0-0.22-0.08-0.22-0.24v-0.67c0-0.16,0.07-0.24,0.22-0.24H54.27z M59.45,22.86c0.15,0.05,0.22,0.11,0.22,0.18
		c0,0.12-0.05,0.21-0.14,0.25c-0.2,0.06-0.29,0.18-0.29,0.37c0,2.06-0.1,3.57-0.3,4.53c-0.27,1.05-0.68,1.97-1.22,2.74
		c-0.41,0.55-0.91,1.05-1.52,1.51h-0.2c-0.36-0.11-0.71-0.23-1.04-0.36c-0.06-0.03-0.09-0.1-0.09-0.2c0.73-0.43,1.32-0.91,1.76-1.45
		c0.44-0.53,0.77-1.2,0.99-1.99c0.29-0.85,0.44-2.28,0.44-4.31c0-0.23-0.02-0.64-0.05-1.24c0-0.11,0.07-0.17,0.22-0.17L59.45,22.86z
		 M57.01,20.72l1.05,0.43c0.17,0.07,0.25,0.16,0.25,0.25c0,0.14-0.05,0.23-0.16,0.29c-0.16,0-0.25,0.1-0.28,0.29
		c-0.42,1.45-0.83,2.56-1.24,3.36c-0.09,0.16-0.16,0.25-0.21,0.25c-0.07,0-0.17-0.03-0.28-0.1c-0.24-0.12-0.46-0.22-0.66-0.31
		c-0.1-0.03-0.14-0.06-0.14-0.09c0-0.03,0.02-0.08,0.07-0.16c0.37-0.71,0.66-1.32,0.85-1.84c0.28-0.68,0.48-1.36,0.61-2.04
		C56.91,20.83,56.96,20.72,57.01,20.72z M60.76,26.12c0.14,0,0.2,0.08,0.2,0.23v0.63c0,0.15-0.07,0.23-0.2,0.23H56
		c-0.14,0-0.2-0.08-0.2-0.23v-0.63c0-0.15,0.07-0.23,0.2-0.23H60.76z M57.46,14.92c0,0.07-0.07,0.17-0.22,0.29v3.7
		c0,0.16,0.08,0.23,0.23,0.23h2.16c0.26,0,0.5-0.42,0.72-1.27l1.07,0.67c-0.39,1.15-0.88,1.72-1.47,1.72h-2.94
		c-0.63,0-0.94-0.27-0.94-0.8v-4.62c0-0.14,0.05-0.22,0.16-0.22C57.05,14.7,57.46,14.8,57.46,14.92z M60.18,15.47
		c0.06,0,0.13,0.05,0.2,0.16c0.49,0.64,0.74,0.98,0.74,1.02c0,0.12-0.05,0.18-0.14,0.18l-0.42-0.07c-0.02,0-0.04,0-0.05,0
		c-0.27,0.18-0.57,0.36-0.9,0.54c-0.41,0.18-0.84,0.35-1.3,0.49c-0.37,0.15-0.86,0.27-1.46,0.38l-0.36-1.05
		c0.6-0.12,1.13-0.27,1.61-0.46c0.45-0.15,0.87-0.35,1.25-0.6c0.28-0.15,0.54-0.35,0.78-0.6C60.14,15.47,60.16,15.47,60.18,15.47z
		 M60.69,22.5c0.14,0,0.2,0.07,0.2,0.23v0.63c0,0.15-0.07,0.23-0.2,0.23h-3.61c-0.14,0-0.2-0.07-0.2-0.23v-0.63
		c0-0.15,0.07-0.23,0.2-0.23H60.69z M59.66,28.2c0.19,0.43,0.49,0.92,0.92,1.46c0.05,0.04,0.08,0.08,0.08,0.13
		c0,0.04-0.04,0.1-0.13,0.17c-0.14,0.18-0.32,0.37-0.55,0.58c-0.08,0.1-0.15,0.14-0.21,0.14c-0.03,0-0.08-0.02-0.13-0.08
		c-0.31-0.44-0.58-0.92-0.81-1.46c-0.23-0.57-0.45-1.25-0.66-2.03l0.9-0.52C59.29,27.28,59.48,27.82,59.66,28.2z M61.66,23.96
		l1.66,0.19c0,0.09-0.04,0.16-0.12,0.2c-0.17,0.09-0.25,0.19-0.25,0.31c-0.01,1.06-0.04,1.87-0.09,2.42
		c-0.03,0.54-0.09,1.09-0.19,1.64c-0.09,0.51-0.21,0.99-0.35,1.44c-0.14,0.47-0.3,0.87-0.48,1.2c-0.24,0.43-0.59,0.89-1.06,1.4
		c-0.08,0-0.15-0.06-0.21-0.19c-0.18-0.2-0.39-0.4-0.62-0.58c-0.1-0.08-0.15-0.16-0.15-0.24c0.1-0.08,0.24-0.21,0.4-0.37
		c0.18-0.2,0.34-0.4,0.46-0.6c0.17-0.25,0.3-0.51,0.4-0.8c0.13-0.33,0.25-0.71,0.35-1.12c0.09-0.38,0.17-0.8,0.24-1.25
		c0.06-0.5,0.1-0.99,0.12-1.47C61.82,25.54,61.78,24.81,61.66,23.96z M67.37,21.22l-0.31,1.16h-5.57c-0.14,0-0.22-0.08-0.22-0.24
		v-0.68c0-0.16,0.07-0.24,0.22-0.24H67.37z M62.44,26.82c0.18,0,0.27,0.07,0.28,0.22c0.03,0.66,0.1,1.27,0.19,1.82
		c0.06,0.45,0.15,0.82,0.26,1.13c0.08,0.28,0.18,0.51,0.29,0.67c0.11,0.18,0.25,0.31,0.41,0.4c0.14,0.09,0.28,0.15,0.42,0.17
		c0.35,0.04,0.84,0.06,1.47,0.06c0.37,0,1.01-0.1,1.91-0.31c0,0.03-0.03,0.11-0.09,0.24c-0.13,0.3-0.24,0.62-0.33,0.96
		c-0.03,0.12-0.13,0.19-0.27,0.19c-0.17,0.06-0.58,0.08-1.22,0.08c-1.03,0-1.78-0.06-2.27-0.17c-0.24-0.09-0.44-0.23-0.62-0.43
		c-0.21-0.22-0.4-0.54-0.56-0.93c-0.14-0.34-0.26-0.76-0.37-1.27c-0.15-0.62-0.26-1.49-0.33-2.61c0-0.15,0.08-0.22,0.23-0.22h0.28
		H62.44z M64.18,18.59c0.64,0.31,1.21,0.64,1.71,1.02c0.38,0.25,0.71,0.51,0.98,0.78c0.03,0.03,0.04,0.05,0.04,0.07
		c0,0.08-0.28,0.3-0.85,0.65c-0.04,0-0.08-0.01-0.12-0.04c-0.45-0.4-0.93-0.74-1.44-1.03c-0.31-0.19-0.64-0.37-1-0.53
		c-0.45-0.2-0.94-0.4-1.46-0.6c-0.04-0.02-0.06-0.04-0.06-0.05c0-0.04,0.21-0.28,0.61-0.74c0.07-0.06,0.16-0.09,0.25-0.09
		C63.26,18.17,63.71,18.36,64.18,18.59z M66.55,15.24c0.19,0,0.32,0.07,0.4,0.2l-0.2,0.88h-4.1c-0.14,0-0.22-0.07-0.22-0.22v-0.65
		c0-0.14,0.07-0.22,0.22-0.22H66.55z M63.82,21.8h1.23v9.8c0,0.15-0.09,0.23-0.27,0.23h-0.71c-0.17,0-0.25-0.08-0.25-0.23V21.8z
		 M66.95,15.45c0.45,0.52,0.67,0.81,0.67,0.88c-1.18,1.75-1.92,2.88-2.22,3.39c-0.05,0.11-0.1,0.16-0.15,0.16
		c-0.1,0-0.2-0.04-0.31-0.13c-0.22-0.18-0.44-0.37-0.67-0.58c-0.1-0.04-0.14-0.1-0.14-0.2L66.95,15.45z M66.83,26.04
		c0.15,0,0.23,0.09,0.23,0.26v0.72c0,0.17-0.08,0.26-0.23,0.26h-2.16c-0.15,0-0.23-0.09-0.23-0.26V26.3c0-0.17,0.08-0.26,0.23-0.26
		H66.83z M67.06,21.22h0.32c0.15,0,0.24,0.02,0.29,0.07c0.2,0.21,0.31,0.37,0.31,0.49l-1.2,2.79c-0.02,0.06-0.06,0.08-0.09,0.08
		c-0.63-0.18-0.94-0.33-0.94-0.45L67.06,21.22z"/>
	<path display="inline" fill="#FFFFFF" d="M72.73,19.49l1.18,0.44c-0.24,1.27-0.48,2.41-0.72,3.44c-0.29,1.05-0.6,1.99-0.93,2.81
		c-0.32,0.87-0.7,1.67-1.13,2.41c-0.15,0-0.26-0.03-0.33-0.11c-0.28-0.13-0.55-0.26-0.83-0.4c-0.12,0-0.17-0.04-0.17-0.11
		c0.58-0.94,1.05-1.86,1.4-2.78c0.35-0.86,0.62-1.7,0.81-2.53c0.19-0.62,0.41-1.64,0.64-3.06C72.66,19.53,72.68,19.49,72.73,19.49z
		 M75.97,18.87c0.15,0,0.23,0.09,0.23,0.26v0.72c0,0.17-0.08,0.26-0.23,0.26h-5.48c-0.15,0-0.23-0.09-0.23-0.26v-0.72
		c0-0.17,0.08-0.26,0.23-0.26H75.97z M74.61,15.04c0,0.17-0.07,0.27-0.21,0.28c-0.14,0.01-0.21,0.14-0.21,0.39v16.71
		c0,0.17-0.1,0.26-0.3,0.26h-0.8c-0.19,0-0.28-0.09-0.28-0.26v-17.4c0-0.16,0.1-0.24,0.29-0.24C74.11,14.78,74.61,14.87,74.61,15.04
		z M75.18,22.18c0.27,0.72,0.73,1.53,1.37,2.44c0.08,0.06,0.12,0.14,0.12,0.22c0,0.04-0.04,0.1-0.13,0.16
		c-0.14,0.18-0.32,0.37-0.55,0.58c-0.08,0.1-0.15,0.15-0.21,0.15c-0.05,0-0.12-0.04-0.2-0.12c-0.46-0.7-0.86-1.48-1.2-2.34
		c-0.34-0.92-0.67-2.01-0.98-3.26l0.9-0.52C74.63,20.65,74.92,21.55,75.18,22.18z M78.69,28.28l1.06,0.79
		c0.1,0.1,0.15,0.19,0.15,0.25c0,0.05-0.05,0.08-0.14,0.09c-0.12,0.02-0.22,0.05-0.3,0.11c-0.33,0.41-0.69,0.79-1.07,1.14
		c-0.44,0.38-1.01,0.77-1.7,1.16c-0.15,0-0.25-0.05-0.3-0.15c-0.27-0.21-0.49-0.39-0.66-0.56c-0.1-0.04-0.15-0.08-0.15-0.13
		c0-0.03,0.02-0.06,0.07-0.09c0.33-0.12,0.6-0.25,0.82-0.4c0.45-0.3,0.85-0.62,1.18-0.97c0.29-0.3,0.6-0.68,0.95-1.13
		C78.63,28.32,78.66,28.28,78.69,28.28z M87.56,26.16c0.15,0,0.22,0.08,0.22,0.24v0.67c0,0.16-0.07,0.24-0.22,0.24H76.58
		c-0.15,0-0.22-0.08-0.22-0.24V26.4c0-0.16,0.07-0.24,0.22-0.24H87.56z M87.64,15.51c0.14,0,0.22,0.08,0.22,0.24v0.68
		c0,0.16-0.07,0.24-0.22,0.24H76.73c-0.14,0-0.22-0.08-0.22-0.24v-0.68c0-0.16,0.07-0.24,0.22-0.24H87.64z M77.04,18.21h9.99
		l-1.11,1.16h-7.72v1.93l-1.11,1.16c-0.19,0-0.28-0.09-0.28-0.26v-3.72C76.82,18.3,76.9,18.21,77.04,18.21z M85.93,19.37l1.11-1.16
		c0.19,0,0.28,0.09,0.28,0.26v3.72c0,0.17-0.08,0.26-0.24,0.26H77.1l1.11-1.16h7.72V19.37z M86.33,23.77c0.14,0,0.22,0.08,0.22,0.24
		v0.68c0,0.16-0.07,0.24-0.22,0.24h-8.44c-0.14,0-0.22-0.08-0.22-0.24v-0.68c0-0.16,0.07-0.24,0.22-0.24H86.33z M81.45,26.74h1.39
		v4.37c0,1-0.79,1.5-2.39,1.5H79.6c-0.1,0-0.14-0.11-0.14-0.34c-0.03-0.3-0.15-0.64-0.38-1.03c0-0.08,0.02-0.12,0.07-0.12
		c0.41,0.1,0.81,0.15,1.2,0.15c0.74,0,1.11-0.24,1.11-0.72V26.74z M79.79,16.09h1.31v5.54c0,0.16-0.1,0.25-0.29,0.25h-0.76
		c-0.18,0-0.27-0.08-0.27-0.25V16.09z M82.88,16.09h1.31v5.54c0,0.16-0.1,0.25-0.29,0.25h-0.76c-0.18,0-0.27-0.08-0.27-0.25V16.09z
		 M86.67,29.59c0.49,0.5,0.91,0.95,1.26,1.35c0,0.02-0.03,0.08-0.1,0.17c-0.39,0.53-0.59,0.79-0.62,0.79
		c-0.53-0.64-1.1-1.23-1.71-1.77c-0.5-0.42-0.92-0.73-1.24-0.91c0-0.06,0.21-0.33,0.62-0.81c0.07-0.09,0.12-0.13,0.16-0.13
		C85.7,28.75,86.25,29.19,86.67,29.59z"/>
	<path display="inline" fill="#FFFFFF" d="M107.89,29.25c0.14,0,0.22,0.08,0.22,0.24v0.68c0,0.16-0.07,0.24-0.22,0.24H91.27
		c-0.15,0-0.22-0.08-0.22-0.24v-0.68c0-0.16,0.07-0.24,0.22-0.24H107.89z M107.89,19.37c0.14,0,0.22,0.08,0.22,0.24v0.67
		c0,0.16-0.07,0.24-0.22,0.24H91.35c-0.14,0-0.22-0.08-0.22-0.24v-0.67c0-0.16,0.07-0.24,0.22-0.24H107.89z M106.58,15.98
		c0.14,0,0.22,0.08,0.22,0.24v0.68c0,0.16-0.07,0.24-0.22,0.24H92.66c-0.14,0-0.22-0.08-0.22-0.24v-0.68c0-0.16,0.07-0.24,0.22-0.24
		H106.58z M93.49,21.76h12.25l-1.11,1.16H94.6v3.78l-1.11,1.16c-0.19,0-0.28-0.09-0.28-0.26v-5.57
		C93.22,21.85,93.31,21.76,93.49,21.76z M104.63,22.92l1.11-1.16c0.19,0,0.28,0.09,0.28,0.26v5.57c0,0.17-0.1,0.26-0.29,0.26H93.5
		l1.11-1.16h10.03V22.92z M105.11,24.23c0.14,0,0.22,0.08,0.22,0.24v0.67c0,0.16-0.07,0.24-0.22,0.24H94.13
		c-0.14,0-0.22-0.08-0.22-0.24v-0.67c0-0.16,0.07-0.24,0.22-0.24H105.11z M96.48,18.12c0.23,0.26,0.43,0.54,0.59,0.84
		c0,0.06-0.46,0.21-1.37,0.46c-0.06-0.18-0.2-0.4-0.41-0.65c-0.23-0.29-0.54-0.59-0.92-0.89c0-0.1,0.38-0.33,1.15-0.69
		C95.92,17.52,96.24,17.83,96.48,18.12z M98.77,27.28h1.39v5.14c0,0.17-0.1,0.26-0.3,0.26h-0.8c-0.19,0-0.28-0.09-0.28-0.26V27.28z
		 M100.65,14.81c0,0.17-0.07,0.27-0.21,0.28c-0.14,0.01-0.21,0.14-0.21,0.39v0.81c0,0.17-0.1,0.26-0.3,0.26h-0.8
		c-0.19,0-0.28-0.09-0.28-0.26v-1.51c0-0.16,0.1-0.24,0.29-0.24C100.14,14.55,100.65,14.64,100.65,14.81z M103.38,17.09l1.19,0.49
		c0.19,0.08,0.28,0.18,0.28,0.29c0,0.06-0.05,0.09-0.15,0.12c-0.14,0-0.22,0.04-0.25,0.12c-0.38,0.59-0.75,1.04-1.11,1.36
		c-0.08,0.07-0.15,0.1-0.19,0.1c-0.08,0-0.19-0.04-0.32-0.12c-0.27-0.13-0.52-0.25-0.75-0.36c-0.11-0.04-0.16-0.07-0.16-0.1
		c0-0.01,0.02-0.03,0.06-0.07c0.32-0.31,0.57-0.57,0.73-0.8c0.24-0.3,0.41-0.59,0.52-0.89C103.3,17.14,103.34,17.09,103.38,17.09z"
		/>
	<path display="inline" fill="#FFFFFF" d="M120.28,30.85h-9.36c-0.03-0.98,0.42-2.01,1.33-3.09c0.55-0.66,1.43-1.46,2.62-2.41
		c0.92-0.75,1.74-1.51,2.45-2.29c0.76-0.85,1.14-1.69,1.14-2.53c0-0.71-0.26-1.3-0.77-1.77c-0.5-0.46-1.13-0.69-1.89-0.69
		c-0.54,0-1.03,0.13-1.48,0.39c-0.85,0.46-1.28,1.29-1.29,2.49l-1.77-0.21c0.06-0.66,0.19-1.2,0.39-1.62
		c0.72-1.65,2.12-2.47,4.2-2.47c1.47,0,2.6,0.44,3.41,1.31c0.66,0.73,0.98,1.61,0.98,2.62c0,0.78-0.21,1.53-0.64,2.24
		c-0.54,0.88-1.48,1.89-2.81,3.05l-1.43,1.2c-0.94,0.75-1.61,1.45-2.03,2.12h6.94V30.85z"/>
	<path display="inline" fill="#FFFFFF" d="M125.58,30.85h-1.99v-1.99h1.99V30.85z"/>
	<path display="inline" fill="#FFFFFF" d="M138.1,23.87c0,4.81-1.53,7.21-4.59,7.21c-3.07,0-4.61-2.4-4.61-7.21
		c0-4.82,1.54-7.23,4.61-7.23C136.57,16.63,138.1,19.04,138.1,23.87z M136.32,23.87c0-1.66-0.15-2.93-0.44-3.82
		c-0.45-1.32-1.25-1.99-2.39-1.99c-1.88,0-2.82,1.93-2.82,5.81c0,3.86,0.95,5.79,2.84,5.79C135.39,29.65,136.32,27.72,136.32,23.87z
		"/>
</g>
<g>
	<path fill-rule="evenodd" fill="#4A8504" d="M0,2.17C0,0.72,0.55,0,1.65,0h191.71c1.1,0,1.65,0.72,1.65,2.17v64.4
		c0,1.41-0.55,2.12-1.65,2.12H1.65c-1.1,0-1.65-0.71-1.65-2.12V2.17z"/>
	<g>
		<path fill-rule="evenodd" fill="#274602" d="M145.95,20.81l-1.98-0.62c0.03-1.26,0.4-2.18,1.11-2.76
			c0.47-0.38,1.07-0.63,1.81-0.74L184.26,12c3.13-0.41,4.72,0.86,4.77,3.83l0.74,33.33c0.06,2.96-1.52,4.33-4.73,4.11l-35.92-2.84
			c0-0.58,0.01-1.13,0.04-1.65l33.17,2.63c2.85,0.19,4.25-1.04,4.2-3.7l-0.57-29.87c-0.08-2.69-1.51-3.83-4.28-3.41l-33.17,4.2
			C147.1,18.77,146.25,19.49,145.95,20.81z"/>
		<g>
			<path fill-rule="evenodd" fill="#FFCC00" d="M182.9,12.85c2.14-0.11,3.44,0.69,3.91,2.39c0.22,0.55,0.34,1.19,0.37,1.93
				l0.7,32.42c0,0.14,0,0.29,0,0.45v0.29c0,0.08,0,0.15,0,0.21c0.06,2.8-1.41,4.13-4.4,3.99c-0.08-0.03-0.18-0.04-0.29-0.04
				l-35.43-2.68v-3.13l32.59,2.51c0.05,0,0.12,0.01,0.21,0.04c1.18,0.06,2.1-0.14,2.76-0.58c0.44-0.6,0.65-1.44,0.62-2.51
				l-0.58-29.05c-0.03-0.71-0.15-1.3-0.37-1.77c-0.06-0.05-0.13-0.11-0.21-0.16c-0.58-0.38-1.36-0.55-2.35-0.49
				c-0.19,0-0.39,0.01-0.58,0.04l-32.92,4.07c-1.18,0.14-1.96,0.7-2.35,1.69l-2.8-1.77c0.14-0.93,0.51-1.62,1.11-2.06
				c0.49-0.66,1.26-1.06,2.3-1.19l36.99-4.57C182.44,12.86,182.68,12.85,182.9,12.85z"/>
		</g>
		<g>
			<g>
				<path fill-rule="evenodd" fill="#FFCC00" d="M170.84,23.34c0.49,0.47,0.74,1,0.74,1.6c0,0.63-0.25,1.18-0.74,1.65
					c-0.44,0.47-0.96,0.7-1.56,0.7c-0.68,0-1.25-0.23-1.69-0.7c-0.47-0.47-0.7-1.02-0.7-1.65c0-0.6,0.23-1.14,0.7-1.6
					c0.44-0.49,1-0.74,1.69-0.74C169.88,22.6,170.4,22.85,170.84,23.34z M160.92,22.6c0.63,0,1.17,0.25,1.61,0.74
					c0.49,0.47,0.74,1,0.74,1.6c0,0.63-0.25,1.18-0.74,1.65c-0.44,0.47-0.97,0.7-1.61,0.7c-0.66,0-1.21-0.23-1.65-0.7
					c-0.47-0.47-0.7-1.02-0.7-1.65c0-0.6,0.23-1.14,0.7-1.6C159.72,22.85,160.27,22.6,160.92,22.6z M160.92,31.24
					c0.63,0,1.17,0.25,1.61,0.74c0.49,0.44,0.74,0.97,0.74,1.6c0,0.6-0.25,1.15-0.74,1.65c-0.44,0.47-0.97,0.7-1.61,0.7
					c-0.66,0-1.21-0.23-1.65-0.7c-0.47-0.49-0.7-1.04-0.7-1.65c0-0.63,0.23-1.17,0.7-1.6C159.72,31.49,160.27,31.24,160.92,31.24z
					 M169.28,31.24c0.6,0,1.13,0.25,1.56,0.74c0.49,0.44,0.74,0.97,0.74,1.6c0,0.6-0.25,1.15-0.74,1.65
					c-0.44,0.47-0.96,0.7-1.56,0.7c-0.68,0-1.25-0.23-1.69-0.7c-0.47-0.49-0.7-1.04-0.7-1.65c0-0.63,0.23-1.17,0.7-1.6
					C168.03,31.49,168.59,31.24,169.28,31.24z M152.61,22.6c0.6,0,1.14,0.25,1.6,0.74c0.47,0.47,0.7,1,0.7,1.6
					c0,0.63-0.23,1.18-0.7,1.65c-0.47,0.47-1,0.7-1.6,0.7c-0.66,0-1.22-0.23-1.69-0.7c-0.47-0.47-0.7-1.02-0.7-1.65
					c0-0.6,0.23-1.14,0.7-1.6C151.39,22.85,151.95,22.6,152.61,22.6z M150.93,31.98c0.47-0.49,1.03-0.74,1.69-0.74
					c0.6,0,1.14,0.25,1.6,0.74c0.47,0.44,0.7,0.97,0.7,1.6c0,0.6-0.23,1.15-0.7,1.65c-0.47,0.47-1,0.7-1.6,0.7
					c-0.66,0-1.22-0.23-1.69-0.7c-0.47-0.49-0.7-1.04-0.7-1.65C150.23,32.96,150.46,32.42,150.93,31.98z M152.28,40.75
					c0.63,0,1.17,0.25,1.6,0.74c0.49,0.47,0.74,0.99,0.74,1.56c0,0.63-0.25,1.18-0.74,1.65c-0.44,0.49-0.97,0.74-1.6,0.74
					c-0.66,0-1.21-0.25-1.65-0.74c-0.47-0.47-0.7-1.01-0.7-1.65c0-0.58,0.23-1.1,0.7-1.56C151.08,41,151.63,40.75,152.28,40.75z
					 M170.55,41.49c0.47,0.47,0.7,0.99,0.7,1.56c0,0.63-0.23,1.18-0.7,1.65c-0.47,0.49-1,0.74-1.6,0.74c-0.69,0-1.25-0.25-1.69-0.74
					c-0.47-0.47-0.7-1.01-0.7-1.65c0-0.58,0.23-1.1,0.7-1.56c0.44-0.49,1-0.74,1.69-0.74C169.55,40.75,170.09,41,170.55,41.49z
					 M162.94,43.05c0,0.63-0.25,1.18-0.74,1.65c-0.44,0.49-0.96,0.74-1.56,0.74c-0.69,0-1.25-0.25-1.69-0.74
					c-0.47-0.47-0.7-1.01-0.7-1.65c0-0.58,0.23-1.1,0.7-1.56c0.44-0.49,1-0.74,1.69-0.74c0.6,0,1.12,0.25,1.56,0.74
					C162.69,41.96,162.94,42.48,162.94,43.05z M180.02,23.34c0.47,0.47,0.7,1,0.7,1.6c0,0.63-0.23,1.18-0.7,1.65
					c-0.47,0.47-1,0.7-1.61,0.7c-0.69,0-1.25-0.23-1.69-0.7c-0.47-0.47-0.7-1.02-0.7-1.65c0-0.6,0.23-1.14,0.7-1.6
					c0.44-0.49,1-0.74,1.69-0.74C179.02,22.6,179.55,22.85,180.02,23.34z M178.41,31.24c0.6,0,1.14,0.25,1.61,0.74
					c0.47,0.44,0.7,0.97,0.7,1.6c0,0.6-0.23,1.15-0.7,1.65c-0.47,0.47-1,0.7-1.61,0.7c-0.69,0-1.25-0.23-1.69-0.7
					c-0.47-0.49-0.7-1.04-0.7-1.65c0-0.63,0.23-1.17,0.7-1.6C177.16,31.49,177.73,31.24,178.41,31.24z M178.08,40.75
					c0.63,0,1.16,0.25,1.6,0.74c0.49,0.47,0.74,0.99,0.74,1.56c0,0.63-0.25,1.18-0.74,1.65c-0.44,0.49-0.97,0.74-1.6,0.74
					c-0.66,0-1.21-0.25-1.65-0.74c-0.47-0.47-0.7-1.01-0.7-1.65c0-0.58,0.23-1.1,0.7-1.56C176.88,41,177.43,40.75,178.08,40.75z"/>
				<g>
					<path fill-rule="evenodd" fill="#274602" d="M166.52,21.2c0.82-0.88,1.84-1.32,3.04-1.32c1.12,0,2.08,0.44,2.88,1.32
						c0.88,0.85,1.32,1.81,1.32,2.88c0,1.13-0.44,2.13-1.32,3c-0.8,0.85-1.76,1.28-2.88,1.28c-1.21,0-2.22-0.42-3.04-1.28
						c-0.82-0.88-1.24-1.88-1.24-3C165.29,23.02,165.7,22.05,166.52,21.2z"/>
				</g>
				<g>
					<path fill-rule="evenodd" fill="#274602" d="M156.23,34.33c0,1.12-0.44,2.13-1.32,3c-0.8,0.85-1.74,1.28-2.84,1.28
						c-1.23,0-2.25-0.43-3.05-1.28c-0.85-0.88-1.27-1.88-1.27-3c0-1.1,0.43-2.06,1.27-2.88c0.8-0.88,1.81-1.32,3.05-1.32
						c1.1,0,2.04,0.44,2.84,1.32C155.8,32.27,156.23,33.23,156.23,34.33z"/>
				</g>
				<g>
					<path fill-rule="evenodd" fill="#274602" d="M166.28,40.71c0.79-0.88,1.81-1.32,3.04-1.32c1.1,0,2.04,0.44,2.84,1.32
						c0.91,0.85,1.36,1.81,1.36,2.88c0,1.15-0.45,2.17-1.36,3.04c-0.79,0.85-1.74,1.28-2.84,1.28c-1.24,0-2.25-0.42-3.04-1.28
						c-0.85-0.88-1.28-1.89-1.28-3.04C165,42.52,165.42,41.56,166.28,40.71z"/>
				</g>
			</g>
		</g>
	</g>
	<g>
		<g>
			<path fill-rule="evenodd" fill="#FFCC00" d="M16.41,40.09c-0.25,0.14-0.49,0.33-0.74,0.58c-0.25,0.27-0.42,0.58-0.53,0.91
				c-0.14,0.3-0.21,0.62-0.21,0.95c0,0.69,0.23,1.33,0.7,1.93c0.47,0.52,1,0.78,1.61,0.78c0.25,0,0.48-0.04,0.7-0.12
				c0.22-0.14,0.52-0.4,0.91-0.78c0.38-0.41,0.58-0.96,0.58-1.65c0-0.71-0.23-1.35-0.7-1.89c-0.44-0.55-0.96-0.82-1.56-0.82
				C16.91,39.97,16.66,40.01,16.41,40.09z M23.12,39.89c1.62,2.69,2.43,5.6,2.43,8.72c0,1.4-0.18,2.69-0.54,3.87
				c-0.38,1.15-0.97,2.11-1.77,2.88h-1.52c0.11-0.33,0.21-0.64,0.29-0.95c0.03-0.36,0.04-0.73,0.04-1.11c0-1.56-0.47-2.98-1.4-4.24
				c-0.96-1.26-2.06-1.89-3.29-1.89c-1.29,0-2.41,0.63-3.37,1.89c-0.93,1.26-1.4,2.67-1.4,4.24c0,0.69,0.12,1.37,0.37,2.06h-1.52
				c-0.8-0.77-1.37-1.73-1.73-2.88c-0.41-1.18-0.62-2.48-0.62-3.91c0-3.1,0.81-6.01,2.43-8.72c1.62-2.66,3.57-3.99,5.84-3.99
				C19.58,35.85,21.5,37.2,23.12,39.89z"/>
		</g>
	</g>
	<g>
		<path fill="#FFFFFF" d="M43.37,52.64c-1.29,0-2.33-0.44-3.11-1.32c-0.71-0.81-1.06-1.77-1.06-2.9c0-1.11,0.34-2.04,1.01-2.79
			c0.77-0.84,1.82-1.27,3.16-1.27h4.67v1.44h-4.67c-0.83,0-1.5,0.27-2.02,0.82c-0.45,0.48-0.7,1.08-0.73,1.8
			c-0.02,0.75,0.19,1.39,0.65,1.91c0.51,0.58,1.21,0.88,2.1,0.88h4.67v1.44H43.37z"/>
		<path fill="#FFFFFF" d="M53.4,52.64c-1.29,0-2.33-0.44-3.11-1.32c-0.71-0.81-1.06-1.77-1.06-2.9c0-1.11,0.34-2.04,1.01-2.79
			c0.77-0.84,1.82-1.27,3.16-1.27h4.67v1.44H53.4c-0.83,0-1.5,0.27-2.02,0.82c-0.45,0.48-0.7,1.08-0.73,1.8
			c-0.02,0.75,0.19,1.39,0.64,1.91c0.51,0.58,1.21,0.88,2.1,0.88h4.67v1.44H53.4z"/>
		<path fill="#FFFFFF" d="M60.89,51.2h5.71v1.44h-7.15v-8.28h7.15v1.44h-5.71V51.2z M66.24,47.72v1.44H61.5v-1.44H66.24z"/>
		<path fill="#FFFFFF" d="M74.25,52.64h-6.31V51.2h6.31c0.48,0,0.86-0.12,1.14-0.36c0.26-0.22,0.39-0.49,0.39-0.8
			c0-0.31-0.13-0.56-0.38-0.77c-0.28-0.23-0.67-0.35-1.15-0.35h-3.92c-0.81,0-1.46-0.24-1.94-0.71c-0.43-0.43-0.65-0.96-0.65-1.58
			c0-0.61,0.22-1.14,0.65-1.57c0.48-0.48,1.12-0.71,1.94-0.71h6.25v1.44h-6.25c-0.31,0-0.55,0.08-0.73,0.25
			c-0.18,0.17-0.27,0.37-0.27,0.6c0,0.23,0.08,0.42,0.24,0.58c0.19,0.18,0.43,0.26,0.75,0.26h3.92c0.88,0,1.59,0.27,2.12,0.81
			c0.48,0.49,0.71,1.09,0.71,1.79c0,0.7-0.23,1.29-0.7,1.76C75.85,52.37,75.14,52.64,74.25,52.64z"/>
		<path fill="#FFFFFF" d="M84.36,52.64h-6.31V51.2h6.31c0.48,0,0.86-0.12,1.14-0.36c0.26-0.22,0.39-0.49,0.39-0.8
			c0-0.31-0.13-0.56-0.38-0.77c-0.28-0.23-0.67-0.35-1.15-0.35h-3.92c-0.81,0-1.46-0.24-1.93-0.71c-0.43-0.43-0.65-0.96-0.65-1.58
			c0-0.61,0.22-1.14,0.65-1.57c0.48-0.48,1.12-0.71,1.93-0.71h6.26v1.44h-6.26c-0.31,0-0.55,0.08-0.72,0.25
			c-0.18,0.17-0.27,0.37-0.27,0.6c0,0.23,0.08,0.42,0.24,0.58c0.19,0.18,0.43,0.26,0.75,0.26h3.92c0.88,0,1.59,0.27,2.12,0.81
			c0.48,0.49,0.71,1.09,0.71,1.79c0,0.7-0.23,1.29-0.7,1.76C85.97,52.37,85.26,52.64,84.36,52.64z"/>
		<path fill="#FFFFFF" d="M88.67,52.64v-8.28h1.44v8.28H88.67z"/>
		<path fill="#FFFFFF" d="M100.48,48.54c0.58,0.45,0.88,1.02,0.88,1.69c0,0.65-0.28,1.19-0.83,1.65c-0.61,0.5-1.43,0.75-2.48,0.75
			h-5.93v-8.28h5.93c1.04,0,1.87,0.26,2.48,0.77c0.55,0.46,0.83,1.02,0.83,1.69C101.35,47.49,101.06,48.07,100.48,48.54z
			 M98.28,51.19c0.53,0,0.95-0.1,1.27-0.3c0.28-0.18,0.42-0.4,0.42-0.66c0-0.26-0.14-0.48-0.43-0.66c-0.31-0.21-0.73-0.31-1.26-0.31
			H94.4v-1.44h3.88c0.53,0,0.95-0.11,1.26-0.32c0.28-0.19,0.43-0.43,0.43-0.7c0-0.28-0.14-0.51-0.42-0.7
			c-0.31-0.21-0.74-0.31-1.27-0.31h-4.72v5.4H98.28z"/>
		<path fill="#FFFFFF" d="M103.09,52.64v-8.28h1.44v8.28H103.09z"/>
		<path fill="#FFFFFF" d="M106.11,52.64v-8.28h1.44v6.84h5.7v1.44H106.11z"/>
		<path fill="#FFFFFF" d="M114.57,52.64v-8.28h1.44v8.28H114.57z"/>
		<path fill="#FFFFFF" d="M122.16,45.8v6.84h-1.44V45.8h-3.27v-1.44h7.97v1.44H122.16z"/>
		<path fill="#FFFFFF" d="M131.35,52.64h-1.44v-2.76l-4.22-5.52h1.86l3.13,4.09l2.93-4.09h1.85l-4.1,5.54V52.64z"/>
	</g>
	<g>
		<g>
			<path fill-rule="evenodd" fill="#FFCC00" d="M22.26,48.57c0-3.1,0.81-6.01,2.43-8.72c1.62-2.66,3.57-3.99,5.84-3.99
				c2.22,0,4.14,1.35,5.76,4.03c1.62,2.69,2.43,5.6,2.43,8.72c0,1.4-0.18,2.69-0.53,3.87c-0.38,1.15-0.97,2.11-1.77,2.88h-1.52
				c0.11-0.33,0.21-0.64,0.29-0.95c0.03-0.36,0.04-0.73,0.04-1.11c0-1.56-0.47-2.98-1.4-4.24c-0.96-1.26-2.06-1.89-3.29-1.89
				c-1.29,0-2.41,0.63-3.37,1.89c-0.93,1.26-1.4,2.67-1.4,4.24c0,0.69,0.12,1.37,0.37,2.06H24.6c-0.8-0.77-1.37-1.73-1.73-2.88
				C22.46,51.3,22.26,49.99,22.26,48.57z M30.32,39.97c-0.25,0-0.49,0.04-0.74,0.12c-0.25,0.14-0.49,0.33-0.74,0.58
				c-0.25,0.27-0.43,0.58-0.54,0.91c-0.14,0.3-0.21,0.62-0.21,0.95c0,0.69,0.23,1.33,0.7,1.93c0.47,0.52,1,0.78,1.6,0.78
				c0.25,0,0.48-0.04,0.7-0.12c0.22-0.14,0.52-0.4,0.9-0.78c0.38-0.41,0.58-0.96,0.58-1.65c0-0.71-0.23-1.35-0.7-1.89
				C31.45,40.24,30.93,39.97,30.32,39.97z"/>
		</g>
	</g>
	<g>
		<path fill="#FFFFFF" d="M11.57,28.44l1.13,0.84c0.11,0.11,0.16,0.2,0.16,0.27c0,0.05-0.05,0.09-0.13,0.1
			c-0.12,0.02-0.22,0.06-0.29,0.13c-0.33,0.48-0.68,0.92-1.06,1.32c-0.43,0.44-1,0.89-1.69,1.35c-0.16,0-0.27-0.06-0.32-0.16
			c-0.28-0.22-0.52-0.42-0.7-0.59C8.56,31.65,8.5,31.6,8.5,31.55c0-0.03,0.02-0.07,0.07-0.1c0.33-0.14,0.6-0.29,0.81-0.47
			c0.45-0.35,0.84-0.72,1.16-1.11c0.28-0.34,0.6-0.78,0.94-1.3C11.51,28.48,11.54,28.44,11.57,28.44z M25.94,21.49
			c0.15,0,0.23,0.09,0.23,0.26v0.72c0,0.17-0.08,0.26-0.23,0.26H8.81c-0.15,0-0.23-0.09-0.23-0.26v-0.72c0-0.17,0.08-0.26,0.23-0.26
			H25.94z M12.66,14.39c1.08,0.53,1.61,0.85,1.61,0.94c0,0.12-0.05,0.18-0.14,0.18c-0.22,0.01-0.36,0.08-0.43,0.2
			c-0.66,1.26-1.32,2.22-1.97,2.86c-0.37,0.39-0.99,0.95-1.87,1.67c-0.14,0-0.27-0.06-0.39-0.18c-0.19-0.15-0.39-0.32-0.59-0.5
			c-0.1-0.07-0.14-0.14-0.14-0.23c0.46-0.38,0.92-0.78,1.37-1.2c0.59-0.54,1.11-1.15,1.56-1.82c0.38-0.6,0.67-1.19,0.89-1.77
			C12.58,14.45,12.62,14.39,12.66,14.39z M25.4,26.51c0.15,0,0.23,0.09,0.23,0.26v0.72c0,0.17-0.08,0.26-0.23,0.26H9.51
			c-0.15,0-0.23-0.09-0.23-0.26v-0.72c0-0.17,0.08-0.26,0.23-0.26H25.4z M11.51,17.25h1.39v9.61c0,0.17-0.1,0.26-0.3,0.26h-0.8
			c-0.19,0-0.28-0.09-0.28-0.26V17.25z M25.09,16.63c0.15,0,0.23,0.09,0.23,0.26v0.72c0,0.17-0.08,0.26-0.23,0.26H12.36
			c-0.15,0-0.23-0.08-0.23-0.26v-0.72c0-0.17,0.08-0.26,0.23-0.26H25.09z M15.84,28.64c0.56,0.91,1.07,1.88,1.53,2.91
			c0,0.2-0.04,0.31-0.13,0.32c-0.48,0.33-0.87,0.5-1.16,0.5c-0.49-1.29-0.95-2.35-1.39-3.2c0-0.14,0.31-0.36,0.93-0.66
			C15.74,28.51,15.82,28.55,15.84,28.64z M14.98,17.25h1.39v9.61c0,0.17-0.1,0.26-0.3,0.26h-0.8c-0.19,0-0.28-0.09-0.28-0.26V17.25z
			 M18.53,17.25h1.39v9.61c0,0.17-0.1,0.26-0.3,0.26h-0.8c-0.19,0-0.28-0.09-0.28-0.26V17.25z M19.7,28.64
			c0.7,0.93,1.34,1.93,1.92,2.99c0,0.2-0.05,0.31-0.13,0.32c-0.48,0.33-0.87,0.5-1.16,0.5c-0.62-1.32-1.21-2.41-1.77-3.28
			c0-0.14,0.31-0.36,0.93-0.66C19.6,28.51,19.67,28.55,19.7,28.64z M22.08,17.25h1.39v9.61c0,0.17-0.1,0.26-0.3,0.26h-0.8
			c-0.19,0-0.28-0.09-0.28-0.26V17.25z M25.03,29.91c0.54,0.56,0.99,1.07,1.37,1.52c0,0.03-0.04,0.09-0.11,0.18
			c-0.41,0.56-0.62,0.84-0.65,0.84c-0.58-0.71-1.2-1.38-1.87-1.99c-0.55-0.48-1-0.82-1.36-1.02c0-0.07,0.22-0.35,0.66-0.86
			c0.07-0.09,0.12-0.14,0.16-0.14C23.96,28.96,24.56,29.45,25.03,29.91z"/>
		<path fill="#FFFFFF" d="M29.73,15.21h0.8c0.2,0,0.3,0.08,0.3,0.23v16.82c0,0.17-0.1,0.26-0.3,0.26h-0.8
			c-0.19,0-0.29-0.09-0.29-0.26V15.44C29.45,15.28,29.54,15.21,29.73,15.21z M34.08,15.21v1.16h-3.66c-0.18,0-0.27-0.08-0.27-0.23
			v-0.7c0-0.15,0.09-0.23,0.27-0.23H34.08z M34.08,15.21c0.35,0,0.58,0.05,0.68,0.14c0.31,0.3,0.47,0.56,0.47,0.76l-2.02,5.02
			c-0.01,0.08-0.02,0.15-0.02,0.22c0,0.05,0.03,0.1,0.08,0.16c0.71,0.75,1.24,1.49,1.61,2.23c0.29,0.71,0.44,1.39,0.44,2.04
			c0,1.16-0.18,2.02-0.55,2.56c-0.43,0.69-1.13,1.03-2.09,1.03c-0.61,0-0.93-0.13-0.96-0.39c-0.04-0.3-0.13-0.64-0.25-1.03
			c0-0.2,0.05-0.3,0.15-0.3l1.06,0.14c0.47,0,0.76-0.19,0.88-0.58c0.11-0.37,0.16-0.91,0.16-1.62c0-0.55-0.17-1.14-0.5-1.78
			c-0.35-0.74-0.89-1.43-1.61-2.08c-0.08-0.06-0.13-0.11-0.13-0.15c0-0.05,0.03-0.15,0.09-0.3L34.08,15.21z M46.44,19.6
			c0.15,0,0.22,0.08,0.22,0.24v0.67c0,0.16-0.07,0.24-0.22,0.24h-11.6c-0.15,0-0.22-0.08-0.22-0.24v-0.67
			c0-0.16,0.07-0.24,0.22-0.24H46.44z M46.59,29.25c0.15,0,0.22,0.08,0.22,0.24v0.67c0,0.16-0.07,0.24-0.22,0.24H34.84
			c-0.15,0-0.22-0.08-0.22-0.24v-0.67c0-0.16,0.07-0.24,0.22-0.24H46.59z M45.97,16.21c0.15,0,0.22,0.08,0.22,0.24v0.67
			c0,0.16-0.07,0.24-0.22,0.24H35.68c-0.14,0-0.22-0.08-0.22-0.24v-0.67c0-0.16,0.07-0.24,0.22-0.24H45.97z M36.43,22.11h8.78
			l-1.11,1.08h-6.48v3.62l-1.11,1.08c-0.19,0-0.28-0.09-0.28-0.26v-5.27C36.24,22.2,36.3,22.11,36.43,22.11z M44.11,23.19l1.11-1.08
			c0.19,0,0.28,0.09,0.28,0.26v5.27c0,0.17-0.07,0.26-0.21,0.26h-8.77l1.11-1.08h6.48V23.19z M44.6,24.42c0.14,0,0.2,0.08,0.2,0.23
			v0.63c0,0.15-0.07,0.23-0.2,0.23h-7.46c-0.14,0-0.2-0.08-0.2-0.23v-0.63c0-0.15,0.07-0.23,0.2-0.23H44.6z M38.98,18.85
			c0.2,0.34,0.36,0.7,0.5,1.08c0,0.05-0.41,0.19-1.22,0.41c-0.06-0.24-0.17-0.54-0.34-0.88c-0.2-0.39-0.46-0.79-0.77-1.2
			c0-0.09,0.34-0.29,1.02-0.62C38.5,18.08,38.77,18.48,38.98,18.85z M41.9,14.81c0,0.17-0.07,0.27-0.21,0.28
			c-0.14,0.01-0.21,0.15-0.21,0.39v1.04c0,0.17-0.1,0.26-0.3,0.26h-0.8c-0.19,0-0.28-0.09-0.28-0.26v-1.74
			c0-0.16,0.1-0.24,0.29-0.24C41.39,14.55,41.9,14.64,41.9,14.81z M40.1,27.36h1.39v4.99c0,0.17-0.1,0.26-0.3,0.26h-0.8
			c-0.19,0-0.28-0.09-0.28-0.26V27.36z M43.12,17.63l1.12,0.46c0.18,0.08,0.27,0.17,0.27,0.27c0,0.07-0.04,0.12-0.13,0.15
			c-0.12,0-0.2,0.05-0.22,0.15c-0.33,0.74-0.65,1.3-0.97,1.71c-0.07,0.08-0.13,0.12-0.17,0.12c-0.08,0-0.18-0.04-0.3-0.11
			c-0.25-0.12-0.49-0.24-0.7-0.34c-0.1-0.04-0.15-0.07-0.15-0.09c0-0.01,0.02-0.04,0.06-0.08c0.28-0.38,0.49-0.7,0.64-0.98
			c0.21-0.36,0.36-0.72,0.45-1.08C43.05,17.69,43.09,17.63,43.12,17.63z"/>
		<path fill="#FFFFFF" d="M52.02,16.56L53.19,17c-0.23,1.27-0.46,2.41-0.7,3.44c-0.28,1.05-0.58,1.99-0.9,2.81
			c-0.31,0.87-0.68,1.67-1.1,2.41c-0.15,0-0.26-0.04-0.33-0.11c-0.28-0.13-0.55-0.26-0.83-0.4c-0.12,0-0.17-0.04-0.17-0.11
			c0.57-0.94,1.02-1.86,1.37-2.78c0.34-0.86,0.61-1.7,0.79-2.53c0.19-0.62,0.39-1.63,0.63-3.06C51.95,16.6,51.97,16.56,52.02,16.56z
			 M55.04,16.05c0.15,0,0.22,0.08,0.22,0.24v0.67c0,0.16-0.07,0.24-0.22,0.24h-4.97c-0.14,0-0.22-0.08-0.22-0.24v-0.67
			c0-0.16,0.07-0.24,0.22-0.24H55.04z M51.34,21.99h0.71c0.18,0,0.27,0.08,0.27,0.23v9.99c0,0.16-0.09,0.23-0.27,0.23h-0.71
			c-0.17,0-0.25-0.08-0.25-0.23v-9.99C51.09,22.07,51.18,21.99,51.34,21.99z M54.77,21.99c0.17,0,0.25,0.08,0.25,0.23v8.14
			c0,0.15-0.09,0.23-0.27,0.23h-0.71c-0.17,0-0.25-0.08-0.25-0.23v-7.21h-1.87c-0.14,0-0.22-0.08-0.22-0.23v-0.69
			c0-0.16,0.07-0.23,0.22-0.23H54.77z M54.27,28.55c0.14,0,0.22,0.08,0.22,0.24v0.67c0,0.16-0.07,0.24-0.22,0.24h-2.34
			c-0.14,0-0.22-0.08-0.22-0.24v-0.67c0-0.16,0.07-0.24,0.22-0.24H54.27z M59.45,22.86c0.15,0.05,0.22,0.11,0.22,0.19
			c0,0.12-0.05,0.21-0.14,0.25c-0.2,0.06-0.3,0.18-0.3,0.37c0,2.06-0.1,3.57-0.3,4.53c-0.27,1.05-0.68,1.97-1.22,2.74
			c-0.41,0.55-0.91,1.05-1.52,1.51h-0.2c-0.36-0.11-0.71-0.23-1.04-0.36c-0.06-0.03-0.09-0.1-0.09-0.2
			c0.73-0.43,1.32-0.91,1.76-1.44c0.44-0.53,0.77-1.2,0.99-1.99c0.29-0.85,0.44-2.28,0.44-4.31c0-0.23-0.02-0.64-0.05-1.24
			c0-0.11,0.07-0.17,0.22-0.17L59.45,22.86z M57.01,20.72l1.05,0.43c0.17,0.07,0.25,0.16,0.25,0.25c0,0.14-0.05,0.23-0.16,0.29
			c-0.16,0-0.25,0.1-0.28,0.29c-0.42,1.45-0.83,2.56-1.24,3.35c-0.09,0.16-0.16,0.25-0.21,0.25c-0.07,0-0.17-0.04-0.28-0.1
			c-0.24-0.12-0.46-0.22-0.66-0.32c-0.1-0.04-0.14-0.06-0.14-0.09c0-0.03,0.02-0.08,0.07-0.16c0.37-0.71,0.66-1.32,0.85-1.84
			c0.27-0.68,0.48-1.36,0.61-2.04C56.91,20.83,56.96,20.72,57.01,20.72z M60.76,26.12c0.13,0,0.2,0.08,0.2,0.23v0.63
			c0,0.15-0.07,0.23-0.2,0.23H56c-0.14,0-0.2-0.08-0.2-0.23v-0.63c0-0.15,0.07-0.23,0.2-0.23H60.76z M57.46,14.91
			c0,0.08-0.07,0.17-0.22,0.29v3.7c0,0.16,0.08,0.24,0.24,0.24h2.16c0.26,0,0.5-0.42,0.72-1.27l1.07,0.67
			c-0.39,1.15-0.88,1.72-1.47,1.72h-2.94c-0.63,0-0.94-0.26-0.94-0.79v-4.62c0-0.14,0.05-0.22,0.16-0.22
			C57.05,14.7,57.46,14.8,57.46,14.91z M60.18,15.47c0.06,0,0.13,0.05,0.2,0.16c0.49,0.64,0.74,0.98,0.74,1.02
			c0,0.12-0.05,0.18-0.14,0.18l-0.42-0.07c-0.02,0-0.04,0-0.05,0c-0.27,0.18-0.57,0.36-0.9,0.54c-0.4,0.18-0.84,0.35-1.3,0.49
			c-0.37,0.15-0.86,0.27-1.46,0.38l-0.36-1.05c0.6-0.12,1.13-0.27,1.61-0.46c0.45-0.15,0.87-0.35,1.25-0.6
			c0.28-0.15,0.54-0.35,0.78-0.6C60.14,15.47,60.16,15.47,60.18,15.47z M60.69,22.5c0.14,0,0.2,0.08,0.2,0.22v0.63
			c0,0.15-0.07,0.23-0.2,0.23h-3.61c-0.14,0-0.2-0.08-0.2-0.23v-0.63c0-0.15,0.07-0.22,0.2-0.22H60.69z M59.66,28.2
			c0.18,0.43,0.49,0.92,0.92,1.46c0.05,0.04,0.08,0.08,0.08,0.13c0,0.04-0.04,0.1-0.13,0.16c-0.14,0.18-0.32,0.37-0.55,0.58
			c-0.08,0.1-0.16,0.15-0.21,0.15c-0.03,0-0.08-0.03-0.13-0.08c-0.31-0.44-0.58-0.92-0.81-1.46c-0.23-0.58-0.45-1.25-0.66-2.03
			l0.9-0.52C59.29,27.28,59.48,27.82,59.66,28.2z M61.66,23.96l1.66,0.19c0,0.09-0.04,0.16-0.12,0.2c-0.17,0.09-0.25,0.19-0.25,0.3
			c-0.01,1.06-0.04,1.87-0.09,2.42c-0.03,0.54-0.09,1.08-0.19,1.64c-0.09,0.51-0.21,0.99-0.35,1.44c-0.14,0.47-0.29,0.87-0.48,1.2
			c-0.23,0.42-0.59,0.89-1.06,1.4c-0.08,0-0.15-0.06-0.21-0.19c-0.18-0.2-0.39-0.4-0.62-0.58c-0.1-0.08-0.16-0.16-0.16-0.24
			c0.1-0.08,0.24-0.21,0.4-0.37c0.18-0.2,0.34-0.4,0.46-0.6c0.17-0.25,0.3-0.51,0.4-0.8c0.13-0.33,0.25-0.7,0.35-1.12
			c0.09-0.38,0.17-0.8,0.24-1.25c0.06-0.5,0.1-0.99,0.12-1.47C61.82,25.54,61.78,24.81,61.66,23.96z M67.37,21.22l-0.31,1.16h-5.57
			c-0.14,0-0.22-0.08-0.22-0.24v-0.67c0-0.16,0.07-0.24,0.22-0.24H67.37z M62.44,26.82c0.18,0,0.27,0.07,0.28,0.22
			c0.03,0.66,0.1,1.27,0.19,1.82c0.06,0.45,0.15,0.82,0.26,1.13c0.08,0.28,0.18,0.5,0.29,0.67c0.11,0.18,0.25,0.31,0.41,0.4
			c0.14,0.09,0.27,0.15,0.42,0.17c0.35,0.04,0.84,0.06,1.47,0.06c0.37,0,1.01-0.1,1.91-0.31c0,0.03-0.03,0.11-0.09,0.24
			c-0.13,0.3-0.23,0.62-0.33,0.96c-0.03,0.12-0.12,0.19-0.27,0.19c-0.17,0.06-0.58,0.08-1.22,0.08c-1.02,0-1.78-0.06-2.27-0.17
			c-0.24-0.09-0.44-0.23-0.62-0.43c-0.21-0.22-0.4-0.53-0.57-0.93c-0.14-0.34-0.26-0.76-0.37-1.27c-0.15-0.62-0.26-1.49-0.33-2.61
			c0-0.14,0.08-0.22,0.23-0.22h0.28H62.44z M64.18,18.59c0.64,0.31,1.21,0.64,1.71,1.02c0.38,0.25,0.71,0.51,0.98,0.78
			c0.03,0.03,0.04,0.05,0.04,0.07c0,0.08-0.28,0.3-0.85,0.65c-0.04,0-0.08-0.01-0.12-0.04c-0.45-0.4-0.93-0.74-1.44-1.03
			c-0.31-0.19-0.64-0.37-1-0.53c-0.45-0.2-0.94-0.4-1.46-0.6c-0.04-0.02-0.06-0.04-0.06-0.05c0-0.04,0.2-0.28,0.61-0.74
			c0.07-0.06,0.16-0.09,0.25-0.09C63.26,18.17,63.7,18.36,64.18,18.59z M66.55,15.24c0.18,0,0.32,0.07,0.4,0.2l-0.2,0.88h-4.1
			c-0.15,0-0.22-0.07-0.22-0.22v-0.65c0-0.14,0.07-0.22,0.22-0.22H66.55z M63.82,21.8h1.23v9.8c0,0.15-0.09,0.23-0.27,0.23h-0.71
			c-0.17,0-0.25-0.08-0.25-0.23V21.8z M66.95,15.45c0.45,0.52,0.67,0.81,0.67,0.88c-1.18,1.75-1.92,2.88-2.22,3.39
			c-0.05,0.11-0.1,0.16-0.15,0.16c-0.1,0-0.2-0.04-0.31-0.13c-0.22-0.18-0.44-0.37-0.67-0.58c-0.1-0.04-0.14-0.1-0.14-0.2
			L66.95,15.45z M66.83,26.04c0.15,0,0.23,0.09,0.23,0.26v0.72c0,0.17-0.08,0.26-0.23,0.26h-2.16c-0.15,0-0.23-0.09-0.23-0.26V26.3
			c0-0.17,0.08-0.26,0.23-0.26H66.83z M67.06,21.22h0.32c0.15,0,0.24,0.02,0.29,0.07c0.21,0.21,0.31,0.38,0.31,0.49l-1.2,2.79
			c-0.02,0.06-0.06,0.08-0.09,0.08c-0.63-0.18-0.94-0.33-0.94-0.45L67.06,21.22z"/>
		<path fill="#FFFFFF" d="M72.73,19.49l1.18,0.44c-0.23,1.27-0.47,2.41-0.72,3.44c-0.29,1.06-0.6,1.99-0.93,2.81
			c-0.32,0.87-0.7,1.67-1.13,2.41c-0.14,0-0.25-0.04-0.33-0.11c-0.28-0.13-0.55-0.26-0.83-0.41c-0.12,0-0.17-0.03-0.17-0.11
			c0.58-0.94,1.05-1.86,1.4-2.78c0.35-0.86,0.62-1.7,0.82-2.53c0.19-0.62,0.4-1.64,0.64-3.06C72.66,19.53,72.68,19.49,72.73,19.49z
			 M75.97,18.87c0.16,0,0.23,0.08,0.23,0.26v0.72c0,0.17-0.08,0.26-0.23,0.26h-5.48c-0.15,0-0.23-0.09-0.23-0.26v-0.72
			c0-0.17,0.08-0.26,0.23-0.26H75.97z M74.61,15.04c0,0.17-0.07,0.27-0.21,0.28c-0.14,0.01-0.21,0.15-0.21,0.39v16.71
			c0,0.17-0.1,0.26-0.3,0.26h-0.8c-0.19,0-0.28-0.09-0.28-0.26v-17.4c0-0.16,0.1-0.24,0.29-0.24C74.1,14.78,74.61,14.87,74.61,15.04
			z M75.18,22.19c0.27,0.72,0.73,1.53,1.37,2.44c0.08,0.06,0.12,0.14,0.12,0.22c0,0.04-0.04,0.1-0.13,0.17
			c-0.14,0.18-0.32,0.37-0.55,0.58c-0.09,0.1-0.16,0.14-0.21,0.14c-0.05,0-0.12-0.04-0.2-0.12c-0.46-0.7-0.86-1.48-1.2-2.34
			c-0.34-0.92-0.67-2.01-0.98-3.26l0.9-0.53C74.63,20.65,74.91,21.55,75.18,22.19z M78.69,28.28l1.06,0.79
			c0.1,0.1,0.15,0.19,0.15,0.25c0,0.04-0.04,0.08-0.14,0.09c-0.12,0.01-0.22,0.05-0.29,0.12c-0.33,0.41-0.69,0.79-1.07,1.14
			c-0.44,0.38-1.01,0.77-1.7,1.16c-0.15,0-0.25-0.05-0.3-0.15c-0.27-0.21-0.49-0.39-0.66-0.56c-0.1-0.04-0.15-0.08-0.15-0.13
			c0-0.03,0.02-0.06,0.07-0.09c0.33-0.12,0.6-0.26,0.82-0.41c0.45-0.3,0.85-0.62,1.18-0.97c0.29-0.3,0.6-0.68,0.95-1.13
			C78.63,28.32,78.66,28.28,78.69,28.28z M87.56,26.16c0.14,0,0.22,0.08,0.22,0.24v0.67c0,0.16-0.07,0.24-0.22,0.24H76.57
			c-0.14,0-0.22-0.08-0.22-0.24V26.4c0-0.16,0.07-0.24,0.22-0.24H87.56z M87.64,15.51c0.14,0,0.22,0.08,0.22,0.24v0.68
			c0,0.16-0.07,0.24-0.22,0.24H76.73c-0.14,0-0.22-0.08-0.22-0.24v-0.68c0-0.16,0.07-0.24,0.22-0.24H87.64z M77.04,18.21h9.99
			l-1.11,1.16h-7.72v1.93l-1.11,1.16c-0.19,0-0.28-0.09-0.28-0.26v-3.72C76.82,18.3,76.89,18.21,77.04,18.21z M85.92,19.37
			l1.11-1.16c0.19,0,0.28,0.09,0.28,0.26v3.72c0,0.17-0.08,0.26-0.24,0.26H77.1l1.11-1.16h7.72V19.37z M86.32,23.77
			c0.15,0,0.22,0.08,0.22,0.24v0.67c0,0.16-0.07,0.24-0.22,0.24h-8.44c-0.14,0-0.22-0.08-0.22-0.24v-0.67
			c0-0.16,0.07-0.24,0.22-0.24H86.32z M81.45,26.74h1.39v4.37c0,1-0.8,1.5-2.39,1.5H79.6c-0.1,0-0.15-0.12-0.15-0.34
			c-0.03-0.3-0.15-0.64-0.38-1.03c0-0.08,0.02-0.12,0.07-0.12c0.41,0.1,0.81,0.15,1.2,0.15c0.74,0,1.11-0.24,1.11-0.72V26.74z
			 M79.79,16.09h1.31v5.54c0,0.16-0.1,0.25-0.29,0.25h-0.76c-0.18,0-0.27-0.08-0.27-0.25V16.09z M82.88,16.09h1.31v5.54
			c0,0.16-0.1,0.25-0.29,0.25h-0.76c-0.18,0-0.27-0.08-0.27-0.25V16.09z M86.67,29.59c0.49,0.5,0.91,0.95,1.26,1.36
			c0,0.02-0.03,0.08-0.1,0.17c-0.38,0.53-0.59,0.79-0.62,0.79c-0.53-0.64-1.1-1.23-1.71-1.78c-0.5-0.42-0.92-0.73-1.24-0.91
			c0-0.06,0.21-0.33,0.62-0.81c0.07-0.09,0.12-0.14,0.16-0.14C85.7,28.75,86.25,29.18,86.67,29.59z"/>
		<path fill="#FFFFFF" d="M107.89,29.25c0.14,0,0.22,0.08,0.22,0.24v0.67c0,0.16-0.07,0.24-0.22,0.24H91.27
			c-0.14,0-0.22-0.08-0.22-0.24v-0.67c0-0.16,0.07-0.24,0.22-0.24H107.89z M107.89,19.37c0.14,0,0.22,0.08,0.22,0.24v0.67
			c0,0.16-0.07,0.24-0.22,0.24H91.35c-0.15,0-0.22-0.08-0.22-0.24v-0.67c0-0.16,0.07-0.24,0.22-0.24H107.89z M106.58,15.98
			c0.14,0,0.22,0.08,0.22,0.24v0.68c0,0.16-0.07,0.24-0.22,0.24H92.66c-0.14,0-0.22-0.08-0.22-0.24v-0.68
			c0-0.16,0.07-0.24,0.22-0.24H106.58z M93.49,21.76h12.25l-1.11,1.16H94.6v3.78l-1.11,1.16c-0.19,0-0.28-0.09-0.28-0.26v-5.57
			C93.22,21.85,93.31,21.76,93.49,21.76z M104.63,22.92l1.11-1.16c0.19,0,0.28,0.09,0.28,0.26v5.57c0,0.17-0.1,0.26-0.29,0.26H93.5
			l1.11-1.16h10.03V22.92z M105.11,24.23c0.14,0,0.22,0.08,0.22,0.24v0.68c0,0.16-0.07,0.24-0.22,0.24H94.13
			c-0.14,0-0.22-0.08-0.22-0.24v-0.68c0-0.16,0.07-0.24,0.22-0.24H105.11z M96.48,18.12c0.23,0.26,0.43,0.54,0.59,0.84
			c0,0.06-0.46,0.21-1.37,0.46c-0.07-0.18-0.2-0.4-0.41-0.65c-0.23-0.29-0.54-0.59-0.92-0.89c0-0.1,0.38-0.33,1.15-0.69
			C95.92,17.52,96.24,17.83,96.48,18.12z M98.77,27.28h1.39v5.14c0,0.17-0.1,0.26-0.3,0.26h-0.8c-0.19,0-0.28-0.09-0.28-0.26V27.28z
			 M100.65,14.81c0,0.17-0.07,0.27-0.21,0.28c-0.14,0.01-0.21,0.15-0.21,0.39v0.81c0,0.17-0.1,0.26-0.3,0.26h-0.8
			c-0.19,0-0.28-0.09-0.28-0.26v-1.51c0-0.16,0.09-0.24,0.28-0.24C100.14,14.55,100.65,14.64,100.65,14.81z M103.38,17.1l1.19,0.49
			c0.19,0.08,0.28,0.18,0.28,0.29c0,0.06-0.05,0.09-0.15,0.12c-0.14,0-0.22,0.04-0.25,0.12c-0.38,0.58-0.75,1.04-1.11,1.36
			c-0.08,0.07-0.15,0.1-0.19,0.1c-0.08,0-0.19-0.04-0.32-0.12c-0.27-0.13-0.52-0.25-0.74-0.36c-0.11-0.04-0.16-0.07-0.16-0.1
			c0-0.01,0.02-0.03,0.06-0.07c0.32-0.31,0.57-0.57,0.73-0.8c0.24-0.3,0.41-0.59,0.53-0.89C103.3,17.14,103.34,17.1,103.38,17.1z"/>
		<path fill="#FFFFFF" d="M120.28,30.85h-9.35c-0.03-0.98,0.42-2.01,1.33-3.09c0.55-0.66,1.43-1.46,2.62-2.41
			c0.93-0.75,1.74-1.51,2.45-2.3c0.76-0.85,1.14-1.69,1.14-2.53c0-0.71-0.26-1.3-0.77-1.77c-0.5-0.46-1.13-0.69-1.89-0.69
			c-0.54,0-1.04,0.13-1.49,0.39c-0.85,0.46-1.28,1.29-1.29,2.49l-1.77-0.21c0.06-0.66,0.19-1.2,0.39-1.62
			c0.72-1.65,2.12-2.47,4.2-2.47c1.47,0,2.6,0.44,3.41,1.31c0.66,0.73,0.98,1.61,0.98,2.62c0,0.79-0.21,1.53-0.64,2.24
			c-0.54,0.88-1.48,1.89-2.82,3.05l-1.43,1.2c-0.94,0.75-1.61,1.45-2.03,2.12h6.94V30.85z"/>
		<path fill="#FFFFFF" d="M125.58,30.85h-1.99v-1.99h1.99V30.85z"/>
		<path fill="#FFFFFF" d="M134.73,31.08h-1.84v-11.2c-0.44,0.4-1.02,0.81-1.74,1.21c-0.72,0.4-1.36,0.71-1.93,0.91v-1.7
			c1.03-0.46,1.92-1.02,2.69-1.68c0.77-0.66,1.31-1.3,1.63-1.91h1.18V31.08z"/>
	</g>
</g>
</svg>
